<?xml version="1.0" encoding="UTF-8" standalone="no"?>
<!-- Created with Inkscape (http://www.inkscape.org/) -->

<svg
   version="1.1"
   id="svg1"
   width="953.75952"
   height="395.009"
   viewBox="0 0 953.75952 395.009"
   xmlns:xlink="http://www.w3.org/1999/xlink"
   xmlns="http://www.w3.org/2000/svg"
   xmlns:svg="http://www.w3.org/2000/svg">
  <defs
     id="defs1">
    <linearGradient
       id="swatch7">
      <stop
         style="stop-color:#ffbf04;stop-opacity:0.83999997;"
         offset="0"
         id="stop7" />
    </linearGradient>
    <linearGradient
       id="swatch6">
      <stop
         style="stop-color:#f5bf18;stop-opacity:0.764706;"
         offset="0"
         id="stop6" />
    </linearGradient>
    <linearGradient
       xlink:href="#swatch7"
       id="linearGradient7"
       x1="62.097126"
       y1="550.33301"
       x2="389.31781"
       y2="550.33301"
       gradientUnits="userSpaceOnUse" />
    <linearGradient
       xlink:href="#swatch7"
       id="linearGradient2"
       gradientUnits="userSpaceOnUse"
       x1="62.097126"
       y1="550.33301"
       x2="389.31781"
       y2="550.33301" />
    <linearGradient
       xlink:href="#swatch7"
       id="linearGradient3"
       gradientUnits="userSpaceOnUse"
       x1="62.097126"
       y1="550.33301"
       x2="389.31781"
       y2="550.33301" />
    <linearGradient
       xlink:href="#swatch7"
       id="linearGradient4"
       gradientUnits="userSpaceOnUse"
       x1="62.097126"
       y1="550.33301"
       x2="389.31781"
       y2="550.33301" />
    <linearGradient
       xlink:href="#swatch7"
       id="linearGradient5"
       gradientUnits="userSpaceOnUse"
       x1="62.097126"
       y1="550.33301"
       x2="389.31781"
       y2="550.33301" />
    <linearGradient
       xlink:href="#swatch7"
       id="linearGradient6"
       gradientUnits="userSpaceOnUse"
       x1="62.097126"
       y1="550.33301"
       x2="389.31781"
       y2="550.33301" />
    <linearGradient
       xlink:href="#swatch7"
       id="linearGradient8"
       gradientUnits="userSpaceOnUse"
       x1="62.097126"
       y1="550.33301"
       x2="389.31781"
       y2="550.33301" />
  </defs>
  <g
     id="g1"
     transform="translate(-62.097126,-353.05551)">
    <rect
       style="fill:url(#linearGradient2);fill-opacity:0.764706;fill-rule:evenodd;stroke-width:1.18381"
       id="rect9"
       width="327.22067"
       height="394.55499"
       x="62.097126"
       y="353.05551"
       ry="68.837265" />
    <rect
       style="fill:url(#linearGradient3);fill-opacity:0.764706;fill-rule:evenodd;stroke-width:1.18381"
       id="rect10"
       width="327.22067"
       height="394.55499"
       x="62.097126"
       y="353.05551"
       ry="68.837265" />
    <rect
       style="fill:url(#linearGradient4);fill-opacity:0.764706;fill-rule:evenodd;stroke-width:1.18381"
       id="rect11"
       width="327.22067"
       height="394.55499"
       x="62.097126"
       y="353.05551"
       ry="68.837265" />
    <rect
       style="fill:url(#linearGradient5);fill-opacity:0.764706;fill-rule:evenodd;stroke-width:1.18381"
       id="rect8"
       width="327.22067"
       height="394.55499"
       x="62.097126"
       y="353.05551"
       ry="68.837265" />
    <rect
       style="fill:url(#linearGradient6);fill-opacity:0.764706;fill-rule:evenodd;stroke-width:1.18381"
       id="rect12"
       width="327.22067"
       height="394.55499"
       x="62.097126"
       y="353.05551"
       ry="68.837265" />
    <rect
       style="fill:url(#linearGradient8);fill-opacity:0.764706;fill-rule:evenodd;stroke-width:1.18381"
       id="rect13"
       width="327.22067"
       height="394.55499"
       x="62.097126"
       y="353.05551"
       ry="68.837265" />
    <rect
       style="fill:url(#linearGradient7);fill-opacity:0.764706;fill-rule:evenodd;stroke-width:1.18381"
       id="rect7"
       width="327.22067"
       height="394.55499"
       x="62.097126"
       y="353.05551"
       ry="68.837265" />
    <path
       style="display:inline;fill:#001559;fill-opacity:1;stroke-width:1.1844"
       d="m 206.96592,741.38351 c -21.26447,-8.96513 -40.69826,-14.63477 -59.59886,-17.38745 -13.37405,-1.94795 -44.34336,-0.94899 -53.553406,1.72728 l -6.66407,1.93653 -4.6136,-7.4719 c -2.53746,-4.10967 -4.613871,-7.82673 -4.614221,-8.26018 -8.33e-4,-0.99496 8.660581,-3.42639 18.883931,-5.3013 11.669816,-2.14002 41.466386,-1.77345 58.227556,0.71643 24.54681,3.64644 63.80122,15.41173 86.3865,25.89163 4.73223,2.19583 8.27224,3.2796 7.86671,2.40833 -0.40552,-0.87141 -3.95607,-7.13674 -7.89006,-13.92303 -16.56254,-28.57128 -21.62004,-37.3549 -24.9496,-43.33167 -4.01077,-7.19943 -3.20614,-6.89978 -24.16889,-9.00174 -7.7899,-0.78096 -16.35268,-1.75305 -19.02836,-2.15999 l -4.86487,-0.73982 -7.70243,-27.11451 -7.70242,-27.11441 -3.16988,2.81057 c -1.7434,1.54597 -3.40593,3.13975 -3.69444,3.54201 -0.28863,0.40229 -5.38235,4.80212 -11.31962,9.77746 -6.64706,5.57031 -10.51533,9.62184 -10.06707,10.54411 0.44259,0.91052 0.25497,1.12592 -0.47834,0.54966 -0.90907,-0.71445 -43.494156,35.09844 -53.411101,44.91714 -1.026646,1.01643 -1.311443,-1.19098 -1.311443,-10.16466 v -11.46308 l 41.051444,-34.85638 c 37.26454,-31.64105 41.28093,-34.72354 43.53947,-33.415 1.36845,0.7926 2.48809,2.05445 2.48809,2.80378 0,0.74941 0.36911,1.21246 0.8207,1.029 0.45137,-0.1833 8.43507,5.81926 17.74162,13.33915 9.30654,7.51993 17.43529,13.67261 18.06391,13.67261 0.62866,0 1.143,0.66459 1.143,1.47677 0,0.81212 0.73269,1.11911 1.62821,0.68217 0.89552,-0.43704 1.36641,-0.25567 1.04639,0.4023 -0.31994,0.65825 2.60627,3.74707 6.50272,6.864 3.89642,3.11693 8.09348,6.49801 9.32686,7.51327 1.93326,1.5917 2.46528,1.56267 3.85932,-0.20984 0.88932,-1.13078 1.96737,-2.05598 2.39565,-2.05598 0.42831,0 11.56079,-7.85206 24.73889,-17.44911 l 23.96024,-17.44925 39.07158,29.70787 39.07161,29.70783 21.24518,3.3889 21.24516,3.38894 v 38.37634 38.3762 l -83.14474,-0.13411 -83.14472,-0.1341 z m 137.93306,-26.19977 c -4.99784,-11.62851 -9.63242,-21.8002 -10.29904,-22.6038 -0.66666,-0.80344 -9.71013,-4.26325 -20.09663,-7.68842 -21.61052,-7.12631 -18.74827,-4.50368 -32.66259,-29.92711 -7.03098,-12.84655 -9.27513,-16.08392 -10.35754,-14.94182 -1.00826,1.06395 -1.59262,1.02425 -2.16183,-0.14663 -0.47685,-0.98092 -0.33745,-1.25689 0.35888,-0.70982 2.32428,1.82634 2.32939,-1.8626 0.008,-6.41654 -1.31845,-2.58742 -2.69051,-4.71182 -3.04909,-4.72094 -0.35839,-0.0144 -5.62094,3.8144 -11.69411,8.49666 -6.07317,4.68229 -11.44516,8.73455 -11.93777,9.00517 -2.06673,1.13518 -11.99074,9.50381 -11.70192,9.86786 0.17323,0.21852 9.99318,6.81113 21.8223,14.65108 11.82911,7.83979 25.75651,17.11789 30.94977,20.61793 5.19328,3.50018 22.42548,14.92304 38.29379,25.38436 15.8683,10.46128 29.29215,19.53283 29.83071,20.15905 2.67721,3.11254 1.01681,-1.66781 -7.30357,-21.02685 z m 103.33499,1.10661 c -3.49432,-1.96901 -6.21219,-5.24311 -7.25939,-8.74512 -0.60418,-2.02039 -1.0985,-11.73799 -1.0985,-21.59461 v -17.92111 h 3.67199 3.67205 v 17.19321 c 0,19.50909 0.87819,22.33731 7.34433,23.65238 2.78612,0.5667 4.3685,0.0512 6.55717,-2.13814 l 2.88481,-2.88525 v -17.91107 -17.91113 h 4.31565 4.31564 l -0.43366,18.34141 c -0.49712,21.02733 -1.80935,25.98381 -7.70904,29.11782 -3.65813,1.94341 -13.38411,2.42289 -16.26106,0.80161 z m 346.2745,-1.90707 c -7.47708,-4.85764 -8.93915,-8.51204 -8.93915,-22.34316 0,-13.83123 1.46207,-17.48558 8.93915,-22.34317 8.29352,-5.38807 17.88415,-3.36782 23.37113,4.9231 3.81969,5.77165 3.67202,8.08263 -0.51613,8.08263 -2.22763,0 -4.36274,-1.23085 -6.36382,-3.66829 -4.23265,-5.1559 -11.07725,-5.18263 -15.10692,-0.0589 -3.87926,4.93208 -4.6598,16.96228 -1.51369,23.33 4.04217,8.18162 14.31157,8.8802 18.50982,1.25945 2.7069,-4.9135 1.94154,-6.18895 -3.71369,-6.18895 h -5.24579 v -4.6687 -4.66879 h 8.91769 8.91788 v 6.24843 c 0,9.32494 -3.49722,17.48634 -8.80677,20.55206 -5.88755,3.39944 -12.77771,3.22937 -18.44971,-0.45537 z m 47.2455,0.0338 c -12.80917,-8.71807 -12.86881,-36.06261 -0.0974,-44.64961 8.96447,-6.02731 21.15661,-2.36197 25.39,7.63295 l 1.96344,4.6355 -3.76784,0.42015 c -2.92928,0.32657 -4.30852,-0.32173 -6.19775,-2.91371 -1.33649,-1.83355 -4.07635,-3.7264 -6.08846,-4.20633 -10.26834,-2.44912 -17.26341,14.26498 -10.95602,26.17817 4.60699,8.70137 13.05477,10.13558 17.48855,2.96898 3.47543,-5.61743 2.82529,-7.10702 -3.10195,-7.10702 h -5.24584 v -4.66868 -4.66879 h 9.58681 9.58675 l -0.70477,7.62479 c -1.3194,14.27318 -6.26211,20.63705 -16.64403,21.42969 -5.3748,0.41051 -7.38052,-0.0681 -11.21161,-2.67598 z m 73.90935,1.08472 c -5.7611,-3.25562 -11.016,-13.4234 -11.016,-21.31506 v -3.27522 l -3.10601,3.94918 -3.10599,3.94904 3.7269,8.62052 3.72677,8.62052 h -4.27777 c -4.17579,0 -4.3534,-0.19053 -7.45538,-8.00342 l -3.17765,-8.0036 h -5.75519 -5.75516 v 8.0036 8.00342 h -4.19659 -4.19655 v -24.01045 -24.0106 h 12.64184 c 13.92579,0 17.54239,1.34154 19.67734,7.29916 0.6894,1.92371 1.26378,5.12019 1.27644,7.1032 0.0189,3.30906 0.18182,3.16681 1.9599,-1.73009 3.52474,-9.71017 8.98356,-14.00618 17.79684,-14.00618 11.47114,0 19.03859,10.07383 19.03859,25.34451 0,10.56953 -3.31101,18.43779 -9.4023,22.34307 -5.3512,3.43092 -13.43787,3.92246 -18.40003,1.11834 z m 13.49175,-7.95729 c 9.17912,-4.87632 9.1896,-26.12661 0.0189,-31.00027 -5.21755,-2.77183 -10.07075,-1.45822 -13.44386,3.63844 -3.61805,5.46699 -3.85079,17.6189 -0.4425,23.12717 3.72072,6.01395 8.03997,7.33262 13.87153,4.23466 z m -33.24206,-18.93252 c 1.88279,-3.27365 1.74893,-7.19607 -0.34662,-10.13929 -1.35997,-1.91065 -3.29293,-2.43949 -8.91778,-2.43949 h -7.18138 v 8.18277 8.18273 l 7.52759,-0.68469 c 5.62774,-0.51201 7.8784,-1.29484 8.91763,-3.10203 z m 57.5195,27.57007 c -1.15403,-0.64533 -3.27857,-2.78622 -4.72112,-4.7575 -2.51674,-3.43907 -2.6366,-4.3892 -2.96075,-23.48939 l -0.33765,-19.90538 h 3.74764 3.7475 l 0.0189,16.34046 c 0.0104,10.37378 0.49358,17.54182 1.32469,19.63022 1.73574,4.36127 7.00971,6.2798 11.19862,4.07368 4.19206,-2.20769 5.28343,-7.50975 5.2908,-25.70476 l 0.0104,-14.3396 h 3.67203 3.67194 l -0.0586,17.00745 c -0.0916,26.27353 -2.52041,31.29788 -15.44914,31.95815 -3.87652,0.19827 -7.99251,-0.16835 -9.14654,-0.81333 z M 475.54704,692.03992 v -24.0106 l 4.45887,0.0853 4.45882,0.0868 8.64087,16.92118 8.64082,16.9213 0.0156,-17.0075 0.0156,-17.00749 h 3.67201 3.67199 v 24.01061 24.0105 h -4.22541 -4.22559 l -8.62644,-16.6828 -8.62646,-16.68294 -0.2934,16.68294 -0.29342,16.6828 h -3.64065 -3.64064 z m 37.76923,0 v -24.0106 h 3.672 3.67199 v 24.0106 24.0105 h -3.67199 -3.672 z m 10.49141,0 v -24.0106 h 14.16348 14.16341 v 4.00176 4.00171 h -10.49138 -10.49153 v 6.00266 6.00261 h 9.96691 9.96692 v 4.66884 4.6687 h -9.96692 -9.96691 v 9.33743 9.33739 h -3.67194 -3.67204 z m 30.42527,0 v -24.0106 h 3.67198 3.67194 v 24.0106 24.0105 h -3.67194 -3.67198 z m 10.61936,0 0.0482,-24.0106 h 14.60072 14.60077 v 4.00176 4.00171 h -10.49143 -10.4914 v 5.33576 5.33559 h 9.44229 9.4422 v 4.6687 4.66883 h -9.4422 -9.44229 v 6.00258 6.00271 h 10.4914 10.49143 v 4.0017 4.00176 h -14.64727 -14.6473 z m 31.34637,0 v -24.24007 l 11.99218,0.44813 c 10.21518,0.38204 12.43056,0.86427 14.95037,3.25557 5.0457,4.78837 7.15465,10.84172 7.15465,20.53637 0,9.69453 -2.10895,15.7479 -7.15465,20.53627 -2.51981,2.39128 -4.73519,2.87371 -14.95037,3.25562 l -11.99218,0.44813 z m 20.40763,14.11905 c 1.95458,-1.03847 4.064,-3.0999 4.68742,-4.58095 1.43949,-3.41972 1.47358,-15.5753 0.0534,-18.94948 -1.6654,-3.95666 -6.6695,-6.59575 -12.5065,-6.59575 h -5.29787 v 16.00713 16.00704 h 4.75489 c 2.6152,0 6.35411,-0.84962 8.30868,-1.88799 z m 25.75475,-14.18562 v -24.07721 l 5.93225,0.40038 5.93225,0.40036 4.93836,17.91243 4.93841,17.91229 2.08264,-7.24108 c 1.14534,-3.98247 3.41693,-12.19315 5.04807,-18.24575 l 2.96555,-11.00487 h 6.11329 6.11325 v 24.01065 24.0104 h -3.64318 -3.64317 l -0.2909,-18.96387 -0.29137,-18.96395 -5.24565,18.95123 -5.24575,18.95108 -3.82509,0.0144 -3.82517,0.0144 -4.32033,-15.67358 c -6.40686,-23.24289 -6.23907,-23.17207 -6.31836,-2.66778 l -0.0709,18.34136 h -3.67189 -3.67208 z m 47.21151,0.0666 V 668.0293 h 3.67206 3.67193 v 24.01065 24.01045 h -3.67193 -3.67206 z m 11.54061,0 V 668.0293 h 4.09823 4.09823 l 9.0133,17.67447 9.01327,17.67438 0.003,-17.67438 0.003,-17.67447 h 3.67195 3.67203 v 24.01065 24.01045 h -4.5887 -4.58871 l -8.26334,-16.34049 -8.26334,-16.34051 -0.29516,16.34051 -0.29514,16.34049 h -3.63973 -3.63969 z m 36.72008,0 V 668.0293 h 3.67204 3.67203 v 24.01065 24.01045 h -3.67203 -3.67204 z m 11.54063,0 V 668.0293 h 4.21201 4.212 l 8.63999,16.98342 8.64004,16.98351 0.29327,-16.98351 0.29279,-16.98342 h 3.64063 3.64071 v 24.01065 24.01045 h -4.45892 -4.45884 l -8.6359,-17.00088 -8.63599,-17.00106 -0.0189,17.00749 -0.0189,17.00743 h -3.67194 -3.67202 z m 231.86104,0 V 668.0293 h 13.1949 c 13.18507,0 13.19727,0 16.26187,3.89921 5.7896,7.36109 4.0902,23.49691 -2.8268,26.84046 -1.45,0.70095 -6.3825,1.27445 -10.96107,1.27445 h -8.3249 v 8.00352 8.00346 h -3.6721 -3.6719 z m 23.53077,-2.09623 c 2.1487,-2.73199 2.1054,-8.39024 -0.088,-11.47147 -1.36,-1.9106 -3.293,-2.43948 -8.91777,-2.43948 h -7.1815 v 8.00362 8.00356 h 7.2692 c 5.20937,0 7.73617,-0.59396 8.91767,-2.09623 z M 435.67951,646.01989 v -6.00266 h 54.03097 54.03098 v 6.00266 6.00258 h -54.03098 -54.03097 z m 43.53953,-39.42517 c -16.65645,-3.17901 -31.69816,-12.27455 -39.77874,-24.05382 -5.18998,-7.56553 -11.47355,-24.47933 -13.83178,-37.23161 -1.63381,-8.8348 -1.89536,-19.39932 -2.23731,-90.37272 l -0.38744,-80.36846 h 28.30855 28.3086 l 0.39139,73.6988 c 0.34811,65.54648 0.59319,74.47558 2.21462,80.72069 3.78189,14.5666 11.14269,20.56025 25.33874,20.63198 16.63213,0.0843 24.35408,-8.36923 26.73012,-29.26235 0.56679,-4.98446 1.03993,-39.82628 1.05137,-77.42589 l 0.0189,-68.36323 h 28.32685 28.32697 l -0.0104,75.03268 c -0.003,58.6709 -0.33719,77.82641 -1.52512,87.84375 -4.49907,37.94709 -19.02064,58.8682 -46.72936,67.32265 -6.24544,1.90544 -13.06299,2.46561 -33.04805,2.71485 -13.84871,0.17271 -28.01219,-0.22623 -31.47435,-0.88732 z m 419.37981,-0.58885 c -21.62115,-4.98306 -37.73891,-14.84903 -50.08078,-30.65525 -4.61624,-5.91212 -10.00937,-14.24033 -11.98467,-18.50714 -16.24763,-35.09594 -16.94443,-94.20576 -1.55152,-131.61952 14.42642,-35.06477 45.09709,-54.65761 85.56153,-54.65761 45.74118,0 80.32959,27.57659 89.92819,71.698 l 2.1039,9.67077 h -29.04877 -29.04895 l -3.68459,-6.3289 c -2.6629,-4.57401 -5.68797,-7.62587 -10.90838,-11.00483 -7.03293,-4.55234 -7.54491,-4.67549 -19.39453,-4.66198 -11.18403,0.0144 -12.6571,0.31644 -18.16574,3.74243 -14.6264,9.09716 -21.85212,30.59737 -20.45147,60.854 1.15541,24.956 8.4037,40.84784 22.88702,50.17926 13.03754,8.39983 35.46742,5.83021 44.86722,-5.14013 3.00852,-3.51113 8.52636,-12.87838 8.52636,-14.47452 0,-0.62362 -9.44228,-1.13383 -20.98281,-1.13383 h -20.98292 v -28.01217 -28.01217 h 49.83438 49.83428 v 17.83304 c 0,67.42885 -24.11317,109.26306 -69.25497,120.15063 -10.58295,2.55241 -37.08329,2.59668 -48.00278,0.0806 z M 600.39529,489.28482 V 374.56813 h 38.77392 38.77394 l 2.08103,9.00397 c 5.41756,23.43873 22.78775,100.22534 26.10297,115.38975 2.04562,9.35737 3.86319,16.83065 4.039,16.60712 0.1752,-0.22334 7.19398,-30.98973 15.59588,-68.36935 8.40189,-37.37955 15.53114,-69.01317 15.84277,-70.29702 0.52613,-2.16814 3.32677,-2.33447 39.31412,-2.33447 h 38.74769 v 114.71669 114.71689 h -28.32698 -28.3269 l -0.0539,-61.69367 -0.0539,-61.69362 -14.48601,61.36021 -14.48597,61.3601 -23.67679,0.35841 c -21.87229,0.33091 -23.71994,0.17848 -24.24404,-2.00085 -3.91511,-16.28089 -21.71306,-91.72942 -24.61553,-104.34925 l -3.82244,-16.61917 -0.27248,61.63898 -0.27248,61.63901 H 628.71274 600.39633 Z M 247.6203,577.69258 c -5.62605,-0.25613 -10.22917,-0.97089 -10.22917,-1.58808 0,-1.08323 16.63407,-48.31038 17.35786,-49.28205 0.19631,-0.26337 1.77747,0.80722 3.51383,2.37929 1.73634,1.57188 5.82664,4.3592 9.08951,6.19388 6.46201,3.63347 8.97039,2.89026 8.73546,-2.58839 -0.11546,-2.69201 -0.14755,-2.70069 -0.62641,-0.16981 -0.92775,4.90395 -2.20476,5.00907 -1.68856,0.13893 0.28037,-2.64424 0.0598,-4.80757 -0.48972,-4.80757 -0.60031,0 -0.68346,-2.26369 -0.20812,-5.66923 0.43508,-3.118 0.80417,-15.52829 0.82018,-27.57817 0.0284,-19.62546 0.26569,-22.55118 2.29843,-28.06916 l 2.26929,-6.16019 7.00426,0.41967 c 11.84181,0.70919 20.12041,1.86429 20.08066,2.80189 -0.0199,0.49173 -9.16414,26.4055 -20.31842,57.58578 l -20.28049,56.69137 -3.54964,0.0843 c -1.95231,0.0433 -8.15273,-0.12585 -13.77877,-0.38156 z m 30.68749,-106.41555 c 0,-1.10049 -0.44425,-2.0009 -0.98724,-2.0009 -1.32294,0 -2.27043,2.08295 -1.43226,3.14876 1.18152,1.50227 2.4195,0.91489 2.4195,-1.14786 z m 1.76581,-8.92057 c -0.33508,-1.06407 -0.5835,-0.74811 -0.63386,0.80586 -0.0459,1.40629 0.20222,2.1941 0.55102,1.75084 0.34861,-0.4433 0.38587,-1.59387 0.0829,-2.5567 z m 1.74221,115.30723 -10.65539,-0.43125 5.80932,-16.37789 5.80932,-16.37803 8.37469,3.08403 c 4.60606,1.69629 10.09158,3.02433 12.19007,2.9512 3.44801,-0.1201 3.56285,-0.23588 1.19256,-1.20098 l -2.62282,-1.06799 2.62282,-0.23877 c 1.44262,-0.13072 2.03272,-0.54099 1.31144,-0.91106 -0.89414,-0.45875 -1.31144,-4.03302 -1.31144,-11.23295 0,-6.15084 -0.438,-10.56026 -1.04913,-10.56026 -0.57702,0 -1.04912,-2.10086 -1.04912,-4.66865 0,-2.56775 0.49542,-4.66864 1.10099,-4.66864 0.61628,0 1.09402,-2.78964 1.08514,-6.33624 -0.008,-3.48489 0.0924,-10.00813 0.22441,-14.49627 0.20027,-6.80385 0.0199,-7.80159 -1.09125,-6.00251 -1.12684,1.8258 -1.18388,1.6449 -0.37076,-1.17734 0.52833,-1.8341 2.86236,-8.72347 5.18669,-15.30976 l 4.22609,-11.97503 8.19601,0.34249 c 14.7403,0.61614 19.42039,1.6408 18.70672,4.09601 -2.9388,10.11002 -29.55817,82.48979 -30.16288,82.01461 -0.43016,-0.33814 -0.47129,0.41533 -0.091,1.67448 0.38228,1.26639 0.25978,1.95044 -0.27442,1.53107 -0.53085,-0.41677 -1.04061,0.53529 -1.13287,2.11562 -0.0919,1.58031 -2.12141,8.1256 -4.50928,14.54503 -4.19792,11.28543 -4.45288,11.6625 -7.70092,11.39053 -1.84757,-0.15484 -8.15419,-0.47562 -14.01467,-0.71227 z m 24.48642,-59.28285 c -0.33505,-1.06403 -0.58351,-0.74791 -0.63389,0.80591 -0.0459,1.40624 0.20222,2.19406 0.55107,1.75079 0.34851,-0.4433 0.38586,-1.59367 0.0829,-2.5567 z m 2.39737,-39.02185 c 0.0199,-0.69048 -0.65977,-0.0911 -1.50696,1.33391 -0.84723,1.42417 -1.55536,3.15426 -1.57374,3.84475 -0.0199,0.69053 0.65978,0.0892 1.50701,-1.33387 0.84718,-1.42418 1.55533,-3.15432 1.57369,-3.84479 z m 3.18083,-7.41503 c 0,-0.73368 -0.49998,-1.33391 -1.11105,-1.33391 -0.61113,0 -0.81932,0.60023 -0.46272,1.33391 0.3565,0.73366 0.85662,1.33388 1.11106,1.33388 0.2546,0 0.46266,-0.60022 0.46266,-1.33388 z m 4.5361,105.74915 -10.67644,-0.46115 4.28458,-11.9597 4.28461,-11.95964 h 10.34039 c 11.58749,0 15.06884,-1.51215 13.27784,-5.76697 -0.59595,-1.41587 -0.90778,-7.00012 -0.69289,-12.4097 0.29067,-7.32042 0.0499,-9.83563 -0.94121,-9.83563 -0.73248,0 -1.3318,-1.50063 -1.3318,-3.33478 0,-2.07489 0.59451,-3.33472 1.57374,-3.33472 2.04809,0 1.94084,-2.15677 -0.42341,-8.51103 -1.86233,-5.00545 -1.86288,-5.25619 -0.0156,-7.60373 1.4398,-1.83067 1.78256,-3.76559 1.39364,-7.86798 -0.58576,-6.17862 0.32282,-9.34196 1.86891,-6.50635 0.69416,1.27314 0.7962,0.94532 0.34422,-1.10594 -0.41619,-1.88828 0.73413,-6.8241 3.26417,-14.00609 2.14877,-6.09982 4.17748,-11.46317 4.50825,-11.91887 0.65184,-0.898 26.22183,0.94454 27.00972,1.94634 0.86759,1.1031 -27.60075,79.62182 -28.49441,78.59073 -0.48026,-0.5542 -0.57623,-0.34537 -0.21331,0.46502 0.36282,0.80991 -2.09007,9.21366 -5.45123,18.67488 -7.01119,19.73581 -4.21079,17.7557 -23.90884,16.90516 z m 25.04542,-42.72165 c -0.30411,-2.01756 -0.75518,-2.89817 -1.00261,-1.95686 -0.44628,1.69744 0.35209,5.6251 1.14329,5.6251 0.22645,0 0.1634,-1.6507 -0.14076,-3.66824 z m -1.25461,-30.93484 c 0,-1.42402 -0.41312,-2.91377 -0.91801,-3.31046 -0.50488,-0.39652 -0.91799,0.76833 -0.91799,2.58919 0,1.8207 0.41312,3.31043 0.91799,3.31043 0.50491,0 0.91801,-1.16518 0.91801,-2.58916 z m -69.24356,29.26751 c 0,-1.46739 0.42785,-2.66785 0.95091,-2.66785 0.52303,0 0.704,1.20046 0.40222,2.66785 -0.30183,1.4673 -0.72969,2.66774 -0.95091,2.66774 -0.22129,0 -0.40223,-1.20044 -0.40222,-2.66774 z m 30.74617,-31.12269 c 0.40045,-1.34391 0.72818,-3.29474 0.72818,-4.33523 0,-1.04043 0.4721,-1.89179 1.04912,-1.89179 1.66796,0 1.21732,3.98044 -0.72814,6.43135 -1.66473,2.09728 -1.7312,2.08431 -1.04916,-0.20404 z m 32.79454,-1.8342 c -0.56939,-1.90113 -0.44883,-2.05435 0.58729,-0.74677 0.717,0.90481 1.03938,1.98117 0.71633,2.39183 -0.3232,0.41098 -0.90964,-0.32947 -1.30362,-1.64506 z m -65.55618,-13.17442 c 0.0503,-1.55397 0.29898,-1.87007 0.63385,-0.80584 0.30294,0.96281 0.26567,2.11338 -0.0828,2.55663 -0.34852,0.44332 -0.59658,-0.3444 -0.55104,-1.75079 z m 1.55836,-2.83266 c -0.56939,-1.9011 -0.44883,-2.05435 0.58729,-0.74666 0.717,0.90488 1.03932,1.98125 0.71633,2.39187 -0.32321,0.41097 -0.90968,-0.32947 -1.30362,-1.64521 z m 1.58907,-5.17089 c 0.0502,-1.55384 0.29897,-1.86994 0.63385,-0.80587 0.30293,0.96302 0.26563,2.11345 -0.0828,2.55666 -0.34862,0.4433 -0.59659,-0.34442 -0.55107,-1.75079 z"
       id="path6" />
    <rect
       style="fill:#f4bf17;fill-opacity:1;stroke-width:1.14887"
       id="rect3-5"
       width="565.79095"
       height="6.472074"
       x="435.08224"
       y="628.25476"
       ry="0" />
    <path
       id="rect4-6"
       style="fill:#ffffff;stroke-width:1.18265"
       d="m 162.13406,374.38338 50.26712,1.54048 -85.51835,203.56852 -56.710236,1.37073 z" />
    <path
       id="rect5-5"
       d="m 150.99204,517.335 26.78071,0.58229 31.13788,62.47955 -90.94362,-0.58223 z"
       style="fill:#ffffff;stroke-width:1.14887" />
    <path
       id="rect6-3"
       d="m 209.2602,442.77781 52.36824,-0.58228 -54.72718,140.32021 -29.25071,-63.46434 z"
       style="fill:#ffffff;fill-opacity:1;stroke-width:1.14887" />
  </g>
</svg>
