<?xml version="1.0" encoding="UTF-8"?><svg id="Layer_1" xmlns="http://www.w3.org/2000/svg" viewBox="0 0 141.74 134.76"><defs><style>.cls-1{fill:#fff;}.cls-1,.cls-2{stroke-width:0px;}.cls-2{fill:#f26322;}</style></defs><path class="cls-2" d="m73.08,7.41v79.65h-9.26V7.41h9.26ZM24.92,3.7v31.49h9.26V3.7h-9.26Zm16.67,59.27v9.26h9.26v-9.26h-9.26ZM37.88,0v44.46h9.26V0h-9.26Zm12.97,3.7v22.23h3.7v9.26h-3.7v27.78h9.26V3.7h-9.26Zm51.86,0v31.49s9.26,0,9.26,0V3.7s-9.26,0-9.26,0Zm-16.67,59.27v9.26s9.26,0,9.26,0v-9.26s-9.26,0-9.26,0ZM89.75,0v44.46s9.26,0,9.26,0V0s-9.26,0-9.26,0Zm-7.41,35.19v-9.26h3.7V3.7h-9.26v59.27h9.26v-27.78h-3.7Z"/><path class="cls-1" d="m9.55,121.74c0,.93.07,1.7.2,2.3.13.6.39,1.08.76,1.44.37.36.89.61,1.54.76.65.15,1.5.22,2.54.22h2.54c.55,0,1.21,0,2-.02.79-.01,1.77-.03,2.94-.06l-1.4,7.67c-.96.03-1.75.05-2.36.06-.61.01-1.15.02-1.6.02h-2.88c-2.48,0-4.59-.21-6.33-.62-1.75-.41-3.17-1.1-4.28-2.06s-1.92-2.23-2.44-3.82c-.52-1.58-.78-3.56-.78-5.93v-3.8c0-2.21.26-4.1.78-5.67s1.33-2.86,2.44-3.86c1.11-1,2.53-1.72,4.28-2.18,1.74-.45,3.86-.68,6.33-.68h2.72c.61,0,1.34,0,2.2.02.85.01,1.88.03,3.08.06l-1.4,7.63c-1.17-.03-2.19-.04-3.04-.04h-2.8c-1.04,0-1.89.07-2.54.22-.65.15-1.17.4-1.54.76-.37.36-.63.85-.76,1.46-.13.61-.2,1.37-.2,2.28v3.84Z"/><path class="cls-1" d="m36.35,104.79c2.48,0,4.59.23,6.33.68,1.74.45,3.17,1.18,4.28,2.18,1.11,1,1.92,2.3,2.44,3.9.52,1.6.78,3.56.78,5.87v4.72c0,2.32-.26,4.28-.78,5.89-.52,1.61-1.33,2.92-2.44,3.92-1.11,1-2.53,1.72-4.28,2.16-1.75.44-3.86.66-6.33.66s-4.59-.22-6.33-.66c-1.75-.44-3.17-1.16-4.28-2.16-1.11-1-1.92-2.3-2.44-3.92-.52-1.61-.78-3.58-.78-5.89v-4.72c0-2.32.26-4.28.78-5.87.52-1.6,1.33-2.9,2.44-3.9,1.11-1,2.53-1.72,4.28-2.18,1.74-.45,3.86-.68,6.33-.68Zm0,22.3c.88,0,1.59-.07,2.14-.22.55-.15.98-.41,1.3-.78.32-.37.54-.88.66-1.52s.18-1.45.18-2.44v-4.72c0-.99-.06-1.8-.18-2.44-.12-.64-.34-1.14-.66-1.52-.32-.37-.75-.63-1.3-.78-.55-.15-1.26-.22-2.14-.22s-1.59.07-2.14.22c-.55.15-.98.41-1.3.78-.32.37-.54.88-.66,1.52-.12.64-.18,1.45-.18,2.44v4.72c0,.99.06,1.8.18,2.44s.34,1.15.66,1.52c.32.37.75.63,1.3.78.55.15,1.26.22,2.14.22Z"/><path class="cls-1" d="m76.41,115.94c0,1.95-.4,3.55-1.2,4.82s-1.91,2.26-3.32,2.98l5.76,10.31h-9.71l-4.12-8.79h-2.8v8.79h-8.83v-28.45h12.31c2.18,0,4.04.17,5.55.5,1.52.33,2.74.87,3.68,1.62.93.75,1.61,1.72,2.04,2.94.43,1.21.64,2.68.64,4.42v.88Zm-8.87-.68c0-.99-.25-1.67-.74-2.06-.49-.39-1.34-.58-2.54-.58h-3.24v5.83h3.24c1.2,0,2.04-.19,2.54-.58.49-.39.74-1.07.74-2.06v-.56Z"/><path class="cls-1" d="m88,134.04h-9.27v-28.45h9.27v28.45Z"/><path class="cls-1" d="m99.57,121.74c0,.93.07,1.7.2,2.3.13.6.39,1.08.76,1.44.37.36.89.61,1.54.76.65.15,1.5.22,2.54.22h2.54c.55,0,1.21,0,2-.02.79-.01,1.77-.03,2.94-.06l-1.4,7.67c-.96.03-1.75.05-2.36.06-.61.01-1.15.02-1.6.02h-2.88c-2.48,0-4.59-.21-6.33-.62-1.75-.41-3.17-1.1-4.28-2.06s-1.92-2.23-2.44-3.82c-.52-1.58-.78-3.56-.78-5.93v-3.8c0-2.21.26-4.1.78-5.67s1.33-2.86,2.44-3.86c1.11-1,2.53-1.72,4.28-2.18,1.74-.45,3.86-.68,6.33-.68h2.72c.61,0,1.34,0,2.2.02.85.01,1.88.03,3.08.06l-1.4,7.63c-1.17-.03-2.19-.04-3.04-.04h-2.8c-1.04,0-1.89.07-2.54.22-.65.15-1.17.4-1.54.76-.37.36-.63.85-.76,1.46-.13.61-.2,1.37-.2,2.28v3.84Z"/><path class="cls-1" d="m130.55,128.61h-8.55l-1.48,5.43h-9.27l9.59-28.45h11.27l9.63,28.45h-9.63l-1.56-5.43Zm-6.63-6.91h4.71l-2.4-8.47-2.32,8.47Z"/></svg>